<?xml version="1.0" encoding="UTF-8"?>
<svg width="360px" height="227px" viewBox="0 0 360 227" version="1.1" xmlns="http://www.w3.org/2000/svg" xmlns:xlink="http://www.w3.org/1999/xlink">
    <!-- Generator: sketchtool 54.1 (76490) - https://sketchapp.com -->
    <title>D4CEFA31-F682-4F42-B253-D9A40656B1D6</title>
    <desc>Created with sketchtool.</desc>
    <g id="Page-1" stroke="none" stroke-width="1" fill="none" fill-rule="evenodd" opacity="0.100000001">
        <g id="Orfox-&gt;-TBA" transform="translate(0.000000, -413.000000)">
            <g id="Screen">
                <g id="Pattern-" transform="translate(-478.000000, 415.000000)">
                    <circle id="Oval" stroke="#FFFFFF" stroke-width="4" cx="551.5" cy="66.5" r="66.5"></circle>
                    <circle id="Oval" stroke="#FFFFFF" stroke-width="4" cx="551.5" cy="66.5" r="50.3411215"></circle>
                    <circle id="Oval-Copy" stroke="#FFFFFF" stroke-width="4" cx="552.121495" cy="67.1214953" r="34.8037383"></circle>
                    <circle id="Oval-Copy-2" stroke="#FFFFFF" stroke-width="4" cx="551.5" cy="66.5" r="19.2663551"></circle>
                    <circle id="Oval" stroke="#FFFFFF" stroke-width="4" cx="768.5" cy="201.5" r="66.5"></circle>
                    <circle id="Oval" stroke="#FFFFFF" stroke-width="4" cx="768.5" cy="201.5" r="50.3411215"></circle>
                    <circle id="Oval-Copy" stroke="#FFFFFF" stroke-width="4" cx="769.121495" cy="202.121495" r="34.8037383"></circle>
                    <circle id="Oval-Copy-2" stroke="#FFFFFF" stroke-width="4" cx="768.5" cy="201.5" r="19.2663551"></circle>
                    <circle id="Oval" stroke="#FFFFFF" stroke-width="4" cx="831.5" cy="66.5" r="66.5"></circle>
                    <circle id="Oval" stroke="#FFFFFF" stroke-width="4" cx="831.5" cy="66.5" r="50.3411215"></circle>
                    <circle id="Oval-Copy" stroke="#FFFFFF" stroke-width="4" cx="832.121495" cy="67.1214953" r="34.8037383"></circle>
                    <circle id="Oval-Copy-2" stroke="#FFFFFF" stroke-width="4" cx="831.5" cy="66.5" r="19.2663551"></circle>
                    <circle id="Oval" stroke="#FFFFFF" stroke-width="4" cx="486.5" cy="201.5" r="66.5"></circle>
                    <circle id="Oval" stroke="#FFFFFF" stroke-width="4" cx="486.5" cy="201.5" r="50.3411215"></circle>
                    <circle id="Oval-Copy" stroke="#FFFFFF" stroke-width="4" cx="487.121495" cy="202.121495" r="34.8037383"></circle>
                    <circle id="Oval-Copy-2" stroke="#FFFFFF" stroke-width="4" cx="486.5" cy="201.5" r="19.2663551"></circle>
                    <path d="M691.5,133 C728.226936,133 758,103.226936 758,66.5 C758,29.7730641 728.226936,0 691.5,0 C654.773064,0 625,29.7730641 625,66.5 C625,103.226936 654.773064,133 691.5,133 Z" id="Oval" stroke="#FFFFFF" stroke-width="4" stroke-linecap="round" stroke-linejoin="round" stroke-dasharray="6,10"></path>
                    <path d="M691.5,116.841121 C719.302634,116.841121 741.841121,94.3026337 741.841121,66.5 C741.841121,38.6973663 719.302634,16.1588785 691.5,16.1588785 C663.697366,16.1588785 641.158879,38.6973663 641.158879,66.5 C641.158879,94.3026337 663.697366,116.841121 691.5,116.841121 Z" id="Oval" stroke="#FFFFFF" stroke-width="4" stroke-linecap="round" stroke-linejoin="round" stroke-dasharray="6,10"></path>
                    <path d="M692.121495,101.925234 C711.343069,101.925234 726.925234,86.3430692 726.925234,67.1214953 C726.925234,47.8999214 711.343069,32.317757 692.121495,32.317757 C672.899921,32.317757 657.317757,47.8999214 657.317757,67.1214953 C657.317757,86.3430692 672.899921,101.925234 692.121495,101.925234 Z" id="Oval-Copy" stroke="#FFFFFF" stroke-width="4" stroke-linecap="round" stroke-linejoin="round" stroke-dasharray="6,10"></path>
                    <path d="M691.5,85.7663551 C702.140514,85.7663551 710.766355,77.1405141 710.766355,66.5 C710.766355,55.8594859 702.140514,47.2336449 691.5,47.2336449 C680.859486,47.2336449 672.233645,55.8594859 672.233645,66.5 C672.233645,77.1405141 680.859486,85.7663551 691.5,85.7663551 Z" id="Oval-Copy-2" stroke="#FFFFFF" stroke-width="4" stroke-linecap="round" stroke-linejoin="round" stroke-dasharray="6,10"></path>
                    <path d="M525.556061,168.75 L659.165152,168.75 C659.165152,206.029221 629.255738,236.25 592.360606,236.25 C555.465474,236.25 525.556061,206.029221 525.556061,168.75 Z" id="Combined-Shape-Copy-4" fill-opacity="0.2" fill="#FFFFFF" transform="translate(592.360606, 202.500000) scale(-1, -1) rotate(90.000000) translate(-592.360606, -202.500000) "></path>
                    <path d="M595.834848,168.75 L729.443939,168.75 C729.443939,206.029221 699.534526,236.25 662.639394,236.25 C625.744262,236.25 595.834848,206.029221 595.834848,168.75 Z" id="Combined-Shape-Copy-5" stroke="#FFFFFF" fill="#FFFFFF" transform="translate(662.639394, 202.500000) scale(-1, -1) rotate(90.000000) translate(-662.639394, -202.500000) "></path>
                </g>
            </g>
        </g>
    </g>
</svg>