<?xml version="1.0" encoding="UTF-8"?>
<svg width="508px" height="507px" viewBox="0 0 508 507" version="1.1" xmlns="http://www.w3.org/2000/svg" xmlns:xlink="http://www.w3.org/1999/xlink">
    <!-- Generator: sketchtool 54.1 (76490) - https://sketchapp.com -->
    <title>AA11F9C5-3136-4D59-A0CF-442578950B2B</title>
    <desc>Created with sketchtool.</desc>
    <defs>
        <linearGradient x1="50%" y1="100%" x2="50%" y2="3.061617e-15%" id="linearGradient-1">
            <stop stop-color="#D1A2FF" offset="0%"></stop>
            <stop stop-color="#FFFFFF" offset="100%"></stop>
        </linearGradient>
        <linearGradient x1="50%" y1="100%" x2="50%" y2="3.061617e-15%" id="linearGradient-2">
            <stop stop-color="#D1A2FF" offset="0%"></stop>
            <stop stop-color="#FFFFFF" offset="100%"></stop>
        </linearGradient>
        <path d="M25,24 C152.577777,24 256,126.974508 256,254 C256,381.025492 152.577777,484 25,484 L25,24 Z" id="path-3"></path>
        <filter x="-14.3%" y="-5.4%" width="121.6%" height="110.9%" filterUnits="objectBoundingBox" id="filter-4">
            <feOffset dx="-8" dy="0" in="SourceAlpha" result="shadowOffsetOuter1"></feOffset>
            <feGaussianBlur stdDeviation="7" in="shadowOffsetOuter1" result="shadowBlurOuter1"></feGaussianBlur>
            <feColorMatrix values="0 0 0 0 0.258823529   0 0 0 0 0.0470588235   0 0 0 0 0.364705882  0 0 0 0.5 0" type="matrix" in="shadowBlurOuter1"></feColorMatrix>
        </filter>
    </defs>
    <g id="Symbols" stroke="none" stroke-width="1" fill="none" fill-rule="evenodd">
        <g id="tb_icon/Light">
            <g id="Light">
                <path d="M253.961839,506.026081 C113.702588,506.026081 1.98951966e-13,392.748284 1.98951966e-13,253.01304 C1.98951966e-13,113.277797 113.702588,1.42108547e-13 253.961839,1.42108547e-13 C394.22109,1.42108547e-13 507.923679,113.277797 507.923679,253.01304 C507.923679,392.748284 394.22109,506.026081 253.961839,506.026081 Z M253.961839,460.02371 C368.719408,460.02371 461.748799,367.341876 461.748799,253.01304 C461.748799,138.684205 368.719408,46.002371 253.961839,46.002371 C139.20427,46.002371 46.1748799,138.684205 46.1748799,253.01304 C46.1748799,367.341876 139.20427,460.02371 253.961839,460.02371 Z M253.961839,429.355463 C156.205392,429.355463 76.9581332,350.404271 76.9581332,253.01304 C76.9581332,155.62181 156.205392,76.6706183 253.961839,76.6706183 C351.718287,76.6706183 430.965546,155.62181 430.965546,253.01304 C430.965546,350.404271 351.718287,429.355463 253.961839,429.355463 Z M253.961839,383.353092 C326.216605,383.353092 384.790666,324.997863 384.790666,253.01304 C384.790666,181.028218 326.216605,122.672989 253.961839,122.672989 C181.707074,122.672989 123.133013,181.028218 123.133013,253.01304 C123.133013,324.997863 181.707074,383.353092 253.961839,383.353092 Z M253.961839,352.684844 C198.708195,352.684844 153.916266,308.060258 153.916266,253.01304 C153.916266,197.965823 198.708195,153.341237 253.961839,153.341237 C309.215484,153.341237 354.007412,197.965823 354.007412,253.01304 C354.007412,308.060258 309.215484,352.684844 253.961839,352.684844 Z M253.961839,306.682473 C283.713802,306.682473 307.832533,282.65385 307.832533,253.01304 C307.832533,223.372231 283.713802,199.343608 253.961839,199.343608 C224.209877,199.343608 200.091146,223.372231 200.091146,253.01304 C200.091146,282.65385 224.209877,306.682473 253.961839,306.682473 Z" id="center" fill="url(#linearGradient-1)" fill-rule="nonzero"></path>
                <g id="half" transform="translate(140.500000, 254.000000) scale(-1, 1) translate(-140.500000, -254.000000) ">
                    <use fill="black" fill-opacity="1" filter="url(#filter-4)" xlink:href="#path-3"></use>
                    <use fill="url(#linearGradient-2)" fill-rule="evenodd" xlink:href="#path-3"></use>
                </g>
            </g>
        </g>
    </g>
</svg>